<?xml version="1.0" encoding="iso-8859-1"?>
<!-- Generator: Adobe Illustrator 19.0.0, SVG Export Plug-In . SVG Version: 6.00 Build 0)  -->
<svg version="1.1" id="Capa_1" xmlns="http://www.w3.org/2000/svg" xmlns:xlink="http://www.w3.org/1999/xlink" x="0px" y="0px"
	 viewBox="0 0 418.304 418.304" style="enable-background:new 0 0 418.304 418.304;" xml:space="preserve">
<g>
	<g>
		<path d="M391.68,96.768C357.888,37.376,295.424,0,226.304,0h-34.816C122.88,0,59.904,37.376,26.624,96.768
			C10.752,124.416,2.56,156.16,2.56,188.928v117.248c3.072,62.464,51.712,111.616,112.128,111.616c10.24,0,17.92-7.68,17.92-17.92
			v-199.68c0-10.24-7.68-17.92-17.92-17.92c-29.696,0-56.32,12.288-76.8,32.256v-26.112c0-26.112,6.656-51.712,19.456-74.752
			C84.48,65.536,135.68,34.816,192,34.816h34.816c55.296,0,107.008,30.208,134.144,78.848c12.8,23.04,19.456,49.152,19.456,74.752
			v26.112c-19.968-19.968-47.104-32.256-76.8-32.256c-10.24,0-17.92,7.68-17.92,17.92v200.192c0,10.24,7.68,17.92,17.92,17.92
			c59.904,0,109.056-49.664,112.128-112.128V188.928C415.744,156.672,407.552,124.928,391.68,96.768z"/>
	</g>
</g>
<g>
</g>
<g>
</g>
<g>
</g>
<g>
</g>
<g>
</g>
<g>
</g>
<g>
</g>
<g>
</g>
<g>
</g>
<g>
</g>
<g>
</g>
<g>
</g>
<g>
</g>
<g>
</g>
<g>
</g>
</svg>
